<?xml version="1.0" encoding="UTF-8"?>
<!DOCTYPE svg PUBLIC "-//W3C//DTD SVG 1.1//EN" "http://www.w3.org/Graphics/SVG/1.1/DTD/svg11.dtd">
<svg xmlns="http://www.w3.org/2000/svg" version="1.1" width="3228px" height="1206px" style="shape-rendering:geometricPrecision; text-rendering:geometricPrecision; image-rendering:optimizeQuality; fill-rule:evenodd; clip-rule:evenodd" xmlns:xlink="http://www.w3.org/1999/xlink">
<g><path style="opacity:0.871" fill="#000000" d="M 562.5,64.5 C 567.777,63.9312 572.777,64.7645 577.5,67C 714.833,156.333 852.167,245.667 989.5,335C 991.709,336.873 993.542,339.04 995,341.5C 995.667,515.833 995.667,690.167 995,864.5C 994.333,865.833 993.667,867.167 993,868.5C 854.252,959.124 715.419,1049.62 576.5,1140C 570.33,1143.42 564.33,1143.09 558.5,1139C 419.744,1048.87 281.244,958.373 143,867.5C 142.138,865.913 141.471,864.246 141,862.5C 140.004,688.445 140.337,514.445 142,340.5C 148.308,334.749 155.141,329.582 162.5,325C 296.069,238.392 429.402,151.558 562.5,64.5 Z M 557.5,396.5 C 536.63,374.469 512.296,357.302 484.5,345C 439.94,327.829 395.607,328.496 351.5,347C 320.913,360.608 295.247,380.442 274.5,406.5C 241.054,385.605 207.721,364.438 174.5,343C 302.085,259.958 429.585,176.791 557,93.5C 557.5,194.499 557.667,295.499 557.5,396.5 Z M 862.5,406.5 C 815.217,348.899 754.55,325.399 680.5,336C 647.761,344.032 619.094,359.365 594.5,382C 589.298,387.37 583.965,392.536 578.5,397.5C 578.333,296.166 578.5,194.833 579,93.5C 706.833,176.667 834.667,259.833 962.5,343C 929.279,364.438 895.946,385.605 862.5,406.5 Z M 261.5,424.5 C 228.028,477.025 216.528,534.025 227,595.5C 231.868,616.775 239.868,636.775 251,655.5C 270.892,687.304 292.725,717.638 316.5,746.5C 265.571,779.974 214.238,812.974 162.5,845.5C 161.333,683.834 161.167,522.168 162,360.5C 195.486,381.484 228.653,402.817 261.5,424.5 Z M 819.5,746.5 C 843.19,718.794 864.69,689.461 884,658.5C 915.501,604.505 922.168,547.505 904,487.5C 897.194,465.225 887.694,444.225 875.5,424.5C 908.265,402.942 941.265,381.608 974.5,360.5C 975.667,522.499 975.833,684.499 975,846.5C 922.992,813.304 871.159,779.97 819.5,746.5 Z M 331.5,762.5 C 391.063,824.563 452.729,884.397 516.5,942C 528.171,952.501 541.838,958.667 557.5,960.5C 557.667,1011.17 557.5,1061.83 557,1112.5C 429.244,1029.71 301.744,946.54 174.5,863C 226.898,829.476 279.231,795.976 331.5,762.5 Z M 804.5,762.5 C 857.015,796.171 909.682,829.671 962.5,863C 835.175,946.664 707.508,1029.83 579.5,1112.5C 578.5,1061.84 578.167,1011.17 578.5,960.5C 596.357,958.071 611.69,950.571 624.5,938C 663.135,902.366 701.468,866.366 739.5,830C 762.098,808.238 783.765,785.738 804.5,762.5 Z"/></g>
<g><path style="opacity:0.956" fill="#000000" d="M 1280.5,146.5 C 1289.4,144.738 1296.9,147.071 1303,153.5C 1340.51,207.185 1378.51,260.519 1417,313.5C 1454.33,260.833 1491.67,208.167 1529,155.5C 1535.13,146.967 1543.29,144.133 1553.5,147C 1557.82,149.315 1560.65,152.815 1562,157.5C 1562.67,260.833 1562.67,364.167 1562,467.5C 1561.22,469.286 1560.05,470.786 1558.5,472C 1554.29,473.534 1549.96,473.867 1545.5,473C 1542.34,471.52 1540.5,469.02 1540,465.5C 1539.67,370.5 1539.33,275.5 1539,180.5C 1502,232.5 1465,284.5 1428,336.5C 1420.33,343.167 1412.67,343.167 1405,336.5C 1368.39,284.222 1331.39,232.222 1294,180.5C 1293.67,275.5 1293.33,370.5 1293,465.5C 1292.5,469.02 1290.66,471.52 1287.5,473C 1283.83,473.667 1280.17,473.667 1276.5,473C 1274.71,472.215 1273.21,471.049 1272,469.5C 1270.34,365.581 1270,261.581 1271,157.5C 1272.63,152.382 1275.79,148.715 1280.5,146.5 Z"/></g>
<g><path style="opacity:0.955" fill="#000000" d="M 2338.5,146.5 C 2348.34,144.428 2356.51,147.094 2363,154.5C 2408.38,257.141 2452.88,360.141 2496.5,463.5C 2494.21,472.319 2488.54,475.486 2479.5,473C 2478.42,472.044 2477.25,471.211 2476,470.5C 2462.02,439.377 2448.19,408.21 2434.5,377C 2374.5,376.167 2314.5,376.333 2254.5,377.5C 2241.33,407.833 2228.17,438.167 2215,468.5C 2210.05,473.685 2204.22,474.851 2197.5,472C 2192.74,466.29 2192.24,460.123 2196,453.5C 2240.09,352.882 2284.76,252.549 2330,152.5C 2332.67,150.098 2335.5,148.098 2338.5,146.5 Z M 2344.5,169.5 C 2371.65,230.48 2398.32,291.813 2424.5,353.5C 2371.5,354.5 2318.5,354.833 2265.5,354.5C 2291.64,292.751 2317.97,231.085 2344.5,169.5 Z"/></g>
<g><path style="opacity:0.964" fill="#000000" d="M 1682.5,148.5 C 1748.17,148.333 1813.83,148.5 1879.5,149C 1886.16,149.663 1889.16,153.329 1888.5,160C 1889.03,164.809 1887.03,168.143 1882.5,170C 1820.13,170.17 1757.79,170.67 1695.5,171.5C 1694.75,172.376 1694.25,173.376 1694,174.5C 1693.5,215.499 1693.33,256.499 1693.5,297.5C 1741.5,297.333 1789.5,297.5 1837.5,298C 1844.41,301.676 1846.25,307.176 1843,314.5C 1841.05,316.894 1838.55,318.394 1835.5,319C 1788.17,319.5 1740.83,319.667 1693.5,319.5C 1693.33,361.835 1693.5,404.168 1694,446.5C 1694.31,447.308 1694.81,447.975 1695.5,448.5C 1757.79,449.33 1820.13,449.83 1882.5,450C 1887.64,451.573 1889.98,455.073 1889.5,460.5C 1890.03,466.47 1887.36,469.97 1881.5,471C 1815.17,471.667 1748.83,471.667 1682.5,471C 1676,469.833 1672.17,466 1671,459.5C 1670.33,359.833 1670.33,260.167 1671,160.5C 1672.34,153.996 1676.17,149.996 1682.5,148.5 Z"/></g>
<g><path style="opacity:0.965" fill="#000000" d="M 1929.5,148.5 C 2019.17,148.333 2108.83,148.5 2198.5,149C 2202.02,149.504 2204.52,151.337 2206,154.5C 2206.67,158.167 2206.67,161.833 2206,165.5C 2204.77,167.726 2202.94,169.226 2200.5,170C 2158.83,170.5 2117.17,170.667 2075.5,170.5C 2075.67,269.167 2075.5,367.834 2075,466.5C 2073.33,471.843 2069.66,474.176 2064,473.5C 2058.34,474.176 2054.67,471.843 2053,466.5C 2052.5,367.834 2052.33,269.167 2052.5,170.5C 2010.83,170.667 1969.17,170.5 1927.5,170C 1920.32,165.784 1918.82,159.951 1923,152.5C 1925.01,150.752 1927.18,149.418 1929.5,148.5 Z"/></g>
<g><path style="opacity:0.977" fill="#231815" d="M 557.5,396.5 C 560.387,401.727 564.054,406.394 568.5,410.5C 572.578,406.647 575.911,402.314 578.5,397.5C 583.965,392.536 589.298,387.37 594.5,382C 619.094,359.365 647.761,344.032 680.5,336C 754.55,325.399 815.217,348.899 862.5,406.5C 856.538,410.821 850.538,415.155 844.5,419.5C 844.771,417.62 844.104,416.287 842.5,415.5C 840.471,413.142 838.471,410.808 836.5,408.5C 834.5,405.833 832.167,403.5 829.5,401.5C 818.97,390.565 806.97,381.565 793.5,374.5C 728.701,340.653 668.368,347.153 612.5,394C 601.601,404.23 591.434,415.063 582,426.5C 575.448,435.186 567.615,436.686 558.5,431C 554.01,424.68 549.01,418.847 543.5,413.5C 511.48,376.157 470.814,355.823 421.5,352.5C 368.286,355.439 324.953,377.439 291.5,418.5C 285.269,415.225 279.603,411.225 274.5,406.5C 295.247,380.442 320.913,360.608 351.5,347C 395.607,328.496 439.94,327.829 484.5,345C 512.296,357.302 536.63,374.469 557.5,396.5 Z"/></g>
<g><path style="opacity:1" fill="#d37586" d="M 793.5,374.5 C 792.969,376.624 791.635,378.124 789.5,379C 696.015,438.329 602.682,497.829 509.5,557.5C 484.797,541.82 460.13,526.153 435.5,510.5C 446.353,500.296 451.353,487.629 450.5,472.5C 481.772,453.221 512.772,433.554 543.5,413.5C 549.01,418.847 554.01,424.68 558.5,431C 567.615,436.686 575.448,435.186 582,426.5C 591.434,415.063 601.601,404.23 612.5,394C 668.368,347.153 728.701,340.653 793.5,374.5 Z"/></g>
<g><path style="opacity:1" fill="#d57082" d="M 543.5,413.5 C 512.772,433.554 481.772,453.221 450.5,472.5C 443.886,443.181 425.552,430.014 395.5,433C 379.506,437.83 368.506,447.997 362.5,463.5C 338.561,448.887 314.894,433.887 291.5,418.5C 324.953,377.439 368.286,355.439 421.5,352.5C 470.814,355.823 511.48,376.157 543.5,413.5 Z"/></g>
<g><path style="opacity:1" fill="#d27787" d="M 793.5,374.5 C 806.97,381.565 818.97,390.565 829.5,401.5C 735.847,461.996 641.847,521.996 547.5,581.5C 534.488,573.997 521.821,565.997 509.5,557.5C 602.682,497.829 696.015,438.329 789.5,379C 791.635,378.124 792.969,376.624 793.5,374.5 Z"/></g>
<g><path style="opacity:1" fill="#d07a8a" d="M 829.5,401.5 C 832.167,403.5 834.5,405.833 836.5,408.5C 836.063,410.074 835.063,411.241 833.5,412C 744.833,468.667 656.167,525.333 567.5,582C 564.048,584.393 560.381,586.226 556.5,587.5C 552.975,586.241 549.975,584.241 547.5,581.5C 641.847,521.996 735.847,461.996 829.5,401.5 Z"/></g>
<g><path style="opacity:1" fill="#cf7e8e" d="M 836.5,408.5 C 838.471,410.808 840.471,413.142 842.5,415.5C 842.67,416.822 842.337,417.989 841.5,419C 750.833,477 660.167,535 569.5,593C 568.207,593.49 566.873,593.657 565.5,593.5C 562.291,591.735 559.291,589.735 556.5,587.5C 560.381,586.226 564.048,584.393 567.5,582C 656.167,525.333 744.833,468.667 833.5,412C 835.063,411.241 836.063,410.074 836.5,408.5 Z"/></g>
<g><path style="opacity:0.974" fill="#231815" d="M 261.5,424.5 C 268.097,427.775 274.43,431.442 280.5,435.5C 277.654,437.475 275.487,440.141 274,443.5C 245.252,492.65 237.086,544.983 249.5,600.5C 253.669,614.827 259.502,628.494 267,641.5C 277.27,658.258 288.104,674.592 299.5,690.5C 307.435,702.099 316.102,713.099 325.5,723.5C 327.372,726.582 329.705,729.249 332.5,731.5C 334.273,734.06 336.273,736.393 338.5,738.5C 342.195,742.526 345.862,746.526 349.5,750.5C 352.5,753.833 355.5,757.167 358.5,760.5C 360.167,762.833 362.167,764.833 364.5,766.5C 369.5,772.167 374.833,777.5 380.5,782.5C 382.167,784.833 384.167,786.833 386.5,788.5C 388.5,791.167 390.833,793.5 393.5,795.5C 398.167,800.833 403.167,805.833 408.5,810.5C 412.5,815.167 416.833,819.5 421.5,823.5C 426.537,829.538 432.203,834.871 438.5,839.5C 442.833,844.5 447.5,849.167 452.5,853.5C 454.219,856.219 456.553,858.219 459.5,859.5C 463.833,864.5 468.5,869.167 473.5,873.5C 478.141,877.805 482.807,882.139 487.5,886.5C 491.807,890.472 496.141,894.472 500.5,898.5C 507.841,905.841 515.508,912.841 523.5,919.5C 530.868,927.363 539.535,933.53 549.5,938C 552.117,938.822 554.784,939.322 557.5,939.5C 557.833,939.5 558.167,939.5 558.5,939.5C 558.825,946.687 558.491,953.687 557.5,960.5C 541.838,958.667 528.171,952.501 516.5,942C 452.729,884.397 391.063,824.563 331.5,762.5C 328.571,758.394 325.404,754.394 322,750.5C 320.549,748.536 318.716,747.203 316.5,746.5C 292.725,717.638 270.892,687.304 251,655.5C 239.868,636.775 231.868,616.775 227,595.5C 216.528,534.025 228.028,477.025 261.5,424.5 Z"/></g>
<g><path style="opacity:0.976" fill="#231815" d="M 875.5,424.5 C 887.694,444.225 897.194,465.225 904,487.5C 922.168,547.505 915.501,604.505 884,658.5C 864.69,689.461 843.19,718.794 819.5,746.5C 814.046,751.41 809.046,756.744 804.5,762.5C 783.765,785.738 762.098,808.238 739.5,830C 701.468,866.366 663.135,902.366 624.5,938C 611.69,950.571 596.357,958.071 578.5,960.5C 578.5,953.5 578.5,946.5 578.5,939.5C 588.509,937.495 597.509,933.329 605.5,927C 636.813,898.845 667.48,870.012 697.5,840.5C 714.136,825.531 730.136,809.864 745.5,793.5C 759.865,780.136 773.531,766.136 786.5,751.5C 796.177,741.155 805.51,730.488 814.5,719.5C 825.954,706.708 836.288,693.041 845.5,678.5C 853.246,668.016 860.246,657.016 866.5,645.5C 874.01,634.811 879.677,623.144 883.5,610.5C 884.899,607.301 885.899,603.968 886.5,600.5C 888.489,596.503 889.489,592.17 889.5,587.5C 890.795,583.733 891.461,579.733 891.5,575.5C 892.483,571.702 892.817,567.702 892.5,563.5C 893.721,552.985 893.721,542.318 892.5,531.5C 892.552,529.097 892.219,526.764 891.5,524.5C 890.673,518.031 889.34,511.698 887.5,505.5C 886.101,498.639 884.101,491.972 881.5,485.5C 880.46,481.958 879.126,478.625 877.5,475.5C 876.718,471.937 875.384,468.603 873.5,465.5C 872.773,463.046 871.773,460.713 870.5,458.5C 868.738,454.638 866.738,450.972 864.5,447.5C 863.737,445.632 862.737,443.965 861.5,442.5C 860.567,439.63 858.9,437.296 856.5,435.5C 862.597,431.398 868.93,427.731 875.5,424.5 Z"/></g>
<g><path style="opacity:1" fill="#f1d6d8" d="M 450.5,472.5 C 451.353,487.629 446.353,500.296 435.5,510.5C 410.875,495.194 386.542,479.527 362.5,463.5C 368.506,447.997 379.506,437.83 395.5,433C 425.552,430.014 443.886,443.181 450.5,472.5 Z"/></g>
<g><path style="opacity:1" fill="#c58595" d="M 856.5,435.5 C 858.9,437.296 860.567,439.63 861.5,442.5C 860.85,442.196 860.183,441.863 859.5,441.5C 765.946,501.438 672.28,561.104 578.5,620.5C 578.336,617.813 578.503,615.146 579,612.5C 671.444,553.365 763.944,494.365 856.5,435.5 Z"/></g>
<g><path style="opacity:1" fill="#be7785" d="M 842.5,415.5 C 844.104,416.287 844.771,417.62 844.5,419.5C 752.862,477.989 661.195,536.489 569.5,595C 567.86,595.348 566.527,594.848 565.5,593.5C 566.873,593.657 568.207,593.49 569.5,593C 660.167,535 750.833,477 841.5,419C 842.337,417.989 842.67,416.822 842.5,415.5 Z"/></g>
<g><path style="opacity:1" fill="#c88a9a" d="M 861.5,442.5 C 862.737,443.965 863.737,445.632 864.5,447.5C 769.514,508.996 674.181,569.996 578.5,630.5C 578.5,627.167 578.5,623.833 578.5,620.5C 672.28,561.104 765.946,501.438 859.5,441.5C 860.183,441.863 860.85,442.196 861.5,442.5 Z"/></g>
<g><path style="opacity:1" fill="#c68e9d" d="M 864.5,447.5 C 866.738,450.972 868.738,454.638 870.5,458.5C 772.917,520.079 675.583,582.079 578.5,644.5C 578.5,639.833 578.5,635.167 578.5,630.5C 674.181,569.996 769.514,508.996 864.5,447.5 Z"/></g>
<g><path style="opacity:1" fill="#c490a0" d="M 870.5,458.5 C 871.773,460.713 872.773,463.046 873.5,465.5C 775.308,528.427 676.974,591.094 578.5,653.5C 578.5,650.5 578.5,647.5 578.5,644.5C 675.583,582.079 772.917,520.079 870.5,458.5 Z"/></g>
<g><path style="opacity:1" fill="#c293a4" d="M 873.5,465.5 C 875.384,468.603 876.718,471.937 877.5,475.5C 777.664,538.917 677.997,602.584 578.5,666.5C 578.5,662.167 578.5,657.833 578.5,653.5C 676.974,591.094 775.308,528.427 873.5,465.5 Z"/></g>
<g><path style="opacity:1" fill="#d47183" d="M 280.5,435.5 C 308.21,452.682 335.544,470.349 362.5,488.5C 365.378,500.368 372.045,509.368 382.5,515.5C 374.5,521.167 366.5,526.833 358.5,532.5C 341.9,521.727 329.067,525.061 320,542.5C 319.352,547.204 319.519,551.871 320.5,556.5C 297.692,570.74 275.025,585.24 252.5,600C 251.552,600.483 250.552,600.649 249.5,600.5C 237.086,544.983 245.252,492.65 274,443.5C 275.487,440.141 277.654,437.475 280.5,435.5 Z"/></g>
<g><path style="opacity:1" fill="#c096a7" d="M 877.5,475.5 C 879.126,478.625 880.46,481.958 881.5,485.5C 880.211,484.499 878.878,484.666 877.5,486C 777.805,549.844 678.138,613.677 578.5,677.5C 578.5,673.833 578.5,670.167 578.5,666.5C 677.997,602.584 777.664,538.917 877.5,475.5 Z"/></g>
<g><path style="opacity:1" fill="#bd9aab" d="M 881.5,485.5 C 884.101,491.972 886.101,498.639 887.5,505.5C 885.407,506.045 883.407,506.878 881.5,508C 780.811,573.01 679.811,637.51 578.5,701.5C 578.5,693.5 578.5,685.5 578.5,677.5C 678.138,613.677 777.805,549.844 877.5,486C 878.878,484.666 880.211,484.499 881.5,485.5 Z"/></g>
<g><path style="opacity:1" fill="#edd3d5" d="M 362.5,488.5 C 379.64,498.906 396.64,509.572 413.5,520.5C 402.549,522.979 392.216,521.313 382.5,515.5C 372.045,509.368 365.378,500.368 362.5,488.5 Z"/></g>
<g><path style="opacity:1" fill="#b89fb1" d="M 887.5,505.5 C 889.34,511.698 890.673,518.031 891.5,524.5C 890.883,524.389 890.383,524.056 890,523.5C 786.223,589.969 682.39,656.302 578.5,722.5C 578.5,715.5 578.5,708.5 578.5,701.5C 679.811,637.51 780.811,573.01 881.5,508C 883.407,506.878 885.407,506.045 887.5,505.5 Z"/></g>
<g><path style="opacity:1" fill="#d37586" d="M 382.5,515.5 C 392.216,521.313 402.549,522.979 413.5,520.5C 439.336,536.584 465.003,552.917 490.5,569.5C 427.304,610.597 363.637,650.93 299.5,690.5C 288.104,674.592 277.27,658.258 267,641.5C 259.502,628.494 253.669,614.827 249.5,600.5C 250.552,600.649 251.552,600.483 252.5,600C 275.025,585.24 297.692,570.74 320.5,556.5C 328.484,571.77 340.151,575.27 355.5,567C 366.25,556.335 367.25,544.835 358.5,532.5C 366.5,526.833 374.5,521.167 382.5,515.5 Z"/></g>
<g><path style="opacity:1" fill="#b6a3b5" d="M 891.5,524.5 C 892.219,526.764 892.552,529.097 892.5,531.5C 891.849,530.909 891.182,530.243 890.5,529.5C 786.482,595.86 682.482,662.193 578.5,728.5C 578.5,726.5 578.5,724.5 578.5,722.5C 682.39,656.302 786.223,589.969 890,523.5C 890.383,524.056 890.883,524.389 891.5,524.5 Z"/></g>
<g><path style="opacity:1" fill="#f1d6d8" d="M 358.5,532.5 C 367.25,544.835 366.25,556.335 355.5,567C 340.151,575.27 328.484,571.77 320.5,556.5C 319.519,551.871 319.352,547.204 320,542.5C 329.067,525.061 341.9,521.727 358.5,532.5 Z"/></g>
<g><path style="opacity:1" fill="#b3a5b8" d="M 892.5,531.5 C 893.721,542.318 893.721,552.985 892.5,563.5C 892.5,562.5 892.5,561.5 892.5,560.5C 892.823,556.774 892.489,553.107 891.5,549.5C 787.149,616.193 682.816,682.86 578.5,749.5C 578.5,742.5 578.5,735.5 578.5,728.5C 682.482,662.193 786.482,595.86 890.5,529.5C 891.182,530.243 891.849,530.909 892.5,531.5 Z"/></g>
<g><path style="opacity:1" fill="#afa9bd" d="M 892.5,560.5 C 787.583,626.745 682.917,693.412 578.5,760.5C 578.5,756.833 578.5,753.167 578.5,749.5C 682.816,682.86 787.149,616.193 891.5,549.5C 892.489,553.107 892.823,556.774 892.5,560.5 Z"/></g>
<g><path style="opacity:1" fill="#adaabf" d="M 892.5,560.5 C 892.5,561.5 892.5,562.5 892.5,563.5C 892.817,567.702 892.483,571.702 891.5,575.5C 891.657,574.127 891.49,572.793 891,571.5C 786.95,638.39 682.783,705.057 578.5,771.5C 578.5,767.833 578.5,764.167 578.5,760.5C 682.917,693.412 787.583,626.745 892.5,560.5 Z"/></g>
<g><path style="opacity:1" fill="#d27787" d="M 490.5,569.5 C 502.856,577.534 515.189,585.534 527.5,593.5C 527.586,594.496 527.252,595.329 526.5,596C 459.444,638.521 392.444,681.021 325.5,723.5C 316.102,713.099 307.435,702.099 299.5,690.5C 363.637,650.93 427.304,610.597 490.5,569.5 Z"/></g>
<g><path style="opacity:1" fill="#aaacc2" d="M 891.5,575.5 C 891.461,579.733 890.795,583.733 889.5,587.5C 889.483,585.972 888.816,585.472 887.5,586C 784.472,651.844 681.472,717.677 578.5,783.5C 578.5,779.5 578.5,775.5 578.5,771.5C 682.783,705.057 786.95,638.39 891,571.5C 891.49,572.793 891.657,574.127 891.5,575.5 Z"/></g>
<g><path style="opacity:1" fill="#a6afc6" d="M 889.5,587.5 C 889.489,592.17 888.489,596.503 886.5,600.5C 784.083,666.255 681.417,731.588 578.5,796.5C 578.5,792.167 578.5,787.833 578.5,783.5C 681.472,717.677 784.472,651.844 887.5,586C 888.816,585.472 889.483,585.972 889.5,587.5 Z"/></g>
<g><path style="opacity:1" fill="#d07a8a" d="M 527.5,593.5 C 530.833,595.5 534.167,597.5 537.5,599.5C 536.043,601.785 534.043,603.618 531.5,605C 465.138,647.177 398.805,689.344 332.5,731.5C 329.705,729.249 327.372,726.582 325.5,723.5C 392.444,681.021 459.444,638.521 526.5,596C 527.252,595.329 527.586,594.496 527.5,593.5 Z"/></g>
<g><path style="opacity:1" fill="#cf7e8e" d="M 537.5,599.5 C 540.5,601.5 543.5,603.5 546.5,605.5C 545.972,606.721 545.305,607.887 544.5,609C 476.899,651.605 409.565,694.605 342.5,738C 341.207,738.49 339.873,738.657 338.5,738.5C 336.273,736.393 334.273,734.06 332.5,731.5C 398.805,689.344 465.138,647.177 531.5,605C 534.043,603.618 536.043,601.785 537.5,599.5 Z"/></g>
<g><path style="opacity:1" fill="#a3b1c8" d="M 886.5,600.5 C 885.899,603.968 884.899,607.301 883.5,610.5C 781.692,674.906 680.026,739.573 578.5,804.5C 578.5,801.833 578.5,799.167 578.5,796.5C 681.417,731.588 784.083,666.255 886.5,600.5 Z"/></g>
<g><path style="opacity:1" fill="#cd8292" d="M 546.5,605.5 C 550.336,607.584 554.003,609.917 557.5,612.5C 557.5,614.5 557.5,616.5 557.5,618.5C 488.432,663.027 419.099,707.027 349.5,750.5C 345.862,746.526 342.195,742.526 338.5,738.5C 339.873,738.657 341.207,738.49 342.5,738C 409.565,694.605 476.899,651.605 544.5,609C 545.305,607.887 545.972,606.721 546.5,605.5 Z"/></g>
<g><path style="opacity:1" fill="#9fb3cc" d="M 883.5,610.5 C 879.677,623.144 874.01,634.811 866.5,645.5C 865.279,644.535 863.946,644.702 862.5,646C 767.975,706.76 673.308,767.26 578.5,827.5C 578.5,819.833 578.5,812.167 578.5,804.5C 680.026,739.573 781.692,674.906 883.5,610.5 Z"/></g>
<g><path style="opacity:1" fill="#ca8797" d="M 557.5,618.5 C 557.5,623.833 557.5,629.167 557.5,634.5C 491.601,677.277 425.267,719.277 358.5,760.5C 355.5,757.167 352.5,753.833 349.5,750.5C 419.099,707.027 488.432,663.027 557.5,618.5 Z"/></g>
<g><path style="opacity:1" fill="#c88a9a" d="M 557.5,634.5 C 557.5,637.833 557.5,641.167 557.5,644.5C 496.692,683.073 436.025,721.907 375.5,761C 372.048,763.393 368.381,765.226 364.5,766.5C 362.167,764.833 360.167,762.833 358.5,760.5C 425.267,719.277 491.601,677.277 557.5,634.5 Z"/></g>
<g><path style="opacity:1" fill="#98b7d2" d="M 866.5,645.5 C 860.246,657.016 853.246,668.016 845.5,678.5C 844.279,677.535 842.946,677.702 841.5,679C 754.116,735.354 666.449,791.187 578.5,846.5C 578.5,840.167 578.5,833.833 578.5,827.5C 673.308,767.26 767.975,706.76 862.5,646C 863.946,644.702 865.279,644.535 866.5,645.5 Z"/></g>
<g><path style="opacity:1" fill="#c58e9e" d="M 557.5,644.5 C 557.5,652.167 557.5,659.833 557.5,667.5C 498.985,705.171 440.318,742.671 381.5,780C 380.748,780.671 380.414,781.504 380.5,782.5C 374.833,777.5 369.5,772.167 364.5,766.5C 368.381,765.226 372.048,763.393 375.5,761C 436.025,721.907 496.692,683.073 557.5,644.5 Z"/></g>
<g><path style="opacity:0.987" fill="#000000" d="M 1926.5,653.5 C 1974.17,653.333 2021.83,653.5 2069.5,654C 2110.38,657.505 2140.21,677.338 2159,713.5C 2170.49,743.469 2171.49,773.803 2162,804.5C 2150.02,834.479 2128.52,853.979 2097.5,863C 2121.78,895.947 2145.28,929.447 2168,963.5C 2173.6,983.806 2166.43,997.306 2146.5,1004C 2133.6,1005.8 2123.1,1001.63 2115,991.5C 2087.83,951.667 2060.67,911.833 2033.5,872C 2010.17,871.5 1986.84,871.333 1963.5,871.5C 1963.67,907.835 1963.5,944.168 1963,980.5C 1957.59,997.899 1945.75,1005.73 1927.5,1004C 1914.85,1001.35 1906.69,993.851 1903,981.5C 1901.35,882.196 1901.01,782.863 1902,683.5C 1902.04,666.647 1910.2,656.647 1926.5,653.5 Z M 1963.5,707.5 C 1995.52,707.095 2027.52,707.595 2059.5,709C 2088.31,715.303 2103.64,733.137 2105.5,762.5C 2103.27,795.566 2085.6,813.732 2052.5,817C 2022.84,817.5 1993.17,817.667 1963.5,817.5C 1963.5,780.833 1963.5,744.167 1963.5,707.5 Z"/></g>
<g><path style="opacity:1" fill="#c393a4" d="M 557.5,667.5 C 557.826,671.884 557.492,676.217 556.5,680.5C 500.066,716.948 443.399,752.948 386.5,788.5C 384.167,786.833 382.167,784.833 380.5,782.5C 380.414,781.504 380.748,780.671 381.5,780C 440.318,742.671 498.985,705.171 557.5,667.5 Z"/></g>
<g><path style="opacity:0.96" fill="#000000" d="M 1660.5,668.5 C 1717.17,664.326 1765,682.66 1804,723.5C 1842.06,770.121 1853.73,822.788 1839,881.5C 1821.86,937.307 1785.69,974.807 1730.5,994C 1673.96,1010.24 1621.96,1001.24 1574.5,967C 1527.41,927.105 1506.91,876.271 1513,814.5C 1520.61,758.404 1548.78,716.237 1597.5,688C 1617.47,677.73 1638.47,671.23 1660.5,668.5 Z M 1667.5,690.5 C 1733.91,689.099 1781.41,718.099 1810,777.5C 1830.37,832.564 1822.71,883.231 1787,929.5C 1746.58,972.903 1697.41,987.736 1639.5,974C 1590.36,958.193 1557.86,925.693 1542,876.5C 1529.05,825.568 1538.72,779.568 1571,738.5C 1597.14,710.345 1629.31,694.345 1667.5,690.5 Z"/></g>
<g><path style="opacity:0.96" fill="#000000" d="M 2607.5,668.5 C 2652.05,664.974 2693.71,674.141 2732.5,696C 2738.67,698.834 2742.67,703.501 2744.5,710C 2742.8,719.018 2737.47,722.351 2728.5,720C 2688.39,695.474 2645.06,686.474 2598.5,693C 2574.87,696.223 2555.71,707.056 2541,725.5C 2527.1,747.581 2527.1,769.581 2541,791.5C 2555.76,805.803 2573.26,815.303 2593.5,820C 2619.38,826.509 2645.38,832.509 2671.5,838C 2690.83,842.217 2708.83,849.551 2725.5,860C 2743.13,873.771 2751.8,891.938 2751.5,914.5C 2750.08,944.736 2736.41,967.569 2710.5,983C 2680.42,998.904 2648.42,1004.9 2614.5,1001C 2575.33,997.612 2539.33,985.278 2506.5,964C 2499.93,957.368 2499.93,950.701 2506.5,944C 2510.04,942.496 2513.71,942.163 2517.5,943C 2549.66,964.166 2585,976.166 2623.5,979C 2649.98,981.171 2674.98,976.171 2698.5,964C 2722.68,948.469 2731.51,926.636 2725,898.5C 2718.76,884.267 2708.26,874.433 2693.5,869C 2687.91,866.803 2682.24,864.803 2676.5,863C 2646.96,855.491 2617.29,848.491 2587.5,842C 2565.07,837.095 2545.07,827.428 2527.5,813C 2510.72,794.386 2504.22,772.552 2508,747.5C 2513.96,715.198 2532.13,692.698 2562.5,680C 2577.12,674.182 2592.12,670.349 2607.5,668.5 Z"/></g>
<g><path style="opacity:0.956" fill="#000000" d="M 1280.5,673.5 C 1347.17,673.333 1413.83,673.5 1480.5,674C 1488.72,678.107 1490.55,684.273 1486,692.5C 1484.58,693.46 1483.08,694.293 1481.5,695C 1419.5,695.333 1357.5,695.667 1295.5,696C 1295,696.5 1294.5,697 1294,697.5C 1293.5,742.165 1293.33,786.832 1293.5,831.5C 1343.5,831.333 1393.5,831.5 1443.5,832C 1449.38,833.047 1452.05,836.547 1451.5,842.5C 1451.78,849.387 1448.45,852.887 1441.5,853C 1392.17,853.5 1342.83,853.667 1293.5,853.5C 1293.67,899.168 1293.5,944.835 1293,990.5C 1289.81,998.842 1283.97,1001.34 1275.5,998C 1273.62,996.457 1272.12,994.624 1271,992.5C 1270.33,889.167 1270.33,785.833 1271,682.5C 1272.78,677.888 1275.94,674.888 1280.5,673.5 Z"/></g>
<g><path style="opacity:0.966" fill="#000000" d="M 2245.5,673.5 C 2311.5,673.333 2377.5,673.5 2443.5,674C 2452.36,676.895 2454.86,682.728 2451,691.5C 2449.42,693.041 2447.59,694.208 2445.5,695C 2383.08,695.007 2320.75,695.674 2258.5,697C 2257.5,738.761 2257.17,780.594 2257.5,822.5C 2305.5,822.333 2353.5,822.5 2401.5,823C 2406.03,824.857 2408.03,828.191 2407.5,833C 2408.02,840.144 2404.69,843.811 2397.5,844C 2350.83,844.5 2304.17,844.667 2257.5,844.5C 2257.17,887.406 2257.5,930.239 2258.5,973C 2321.08,974.326 2383.75,974.993 2446.5,975C 2451.24,976.911 2453.24,980.411 2452.5,985.5C 2453.1,991.409 2450.43,994.909 2444.5,996C 2378.5,996.667 2312.5,996.667 2246.5,996C 2240.35,995.524 2236.52,992.357 2235,986.5C 2234.33,885.5 2234.33,784.5 2235,683.5C 2236.51,678.009 2240.01,674.676 2245.5,673.5 Z"/></g>
<g><path style="opacity:0.965" fill="#000000" d="M 2785.5,673.5 C 2875.5,673.333 2965.5,673.5 3055.5,674C 3060.92,675.309 3063.58,678.809 3063.5,684.5C 3063.98,689.927 3061.64,693.427 3056.5,695C 3014.83,695.5 2973.17,695.667 2931.5,695.5C 2931.67,794.501 2931.5,893.501 2931,992.5C 2928.93,996.953 2925.43,998.953 2920.5,998.5C 2914.16,998.658 2910.33,995.658 2909,989.5C 2908.5,891.501 2908.33,793.501 2908.5,695.5C 2867.17,695.667 2825.83,695.5 2784.5,695C 2779.46,693.604 2777.13,690.271 2777.5,685C 2777.37,679.072 2780.03,675.239 2785.5,673.5 Z"/></g>
<g><path style="opacity:1" fill="#92b9d6" d="M 845.5,678.5 C 836.288,693.041 825.954,706.708 814.5,719.5C 814.389,718.883 814.056,718.383 813.5,718C 815.167,717 816.5,715.667 817.5,714C 737.654,763.94 657.988,814.44 578.5,865.5C 578.5,859.167 578.5,852.833 578.5,846.5C 666.449,791.187 754.116,735.354 841.5,679C 842.946,677.702 844.279,677.535 845.5,678.5 Z"/></g>
<g><path style="opacity:1" fill="#bd94a4" d="M 557.5,612.5 C 558.499,656.997 558.832,701.664 558.5,746.5C 558.167,746.5 557.833,746.5 557.5,746.5C 557.5,743.167 557.5,739.833 557.5,736.5C 557.5,729.5 557.5,722.5 557.5,715.5C 557.831,707.472 557.498,699.472 556.5,691.5C 502.149,726.193 447.816,760.86 393.5,795.5C 390.833,793.5 388.5,791.167 386.5,788.5C 443.399,752.948 500.066,716.948 556.5,680.5C 557.492,676.217 557.826,671.884 557.5,667.5C 557.5,659.833 557.5,652.167 557.5,644.5C 557.5,641.167 557.5,637.833 557.5,634.5C 557.5,629.167 557.5,623.833 557.5,618.5C 557.5,616.5 557.5,614.5 557.5,612.5 Z"/></g>
<g><path style="opacity:1" fill="#be9aab" d="M 557.5,715.5 C 507.664,746.917 457.997,778.584 408.5,810.5C 403.167,805.833 398.167,800.833 393.5,795.5C 447.816,760.86 502.149,726.193 556.5,691.5C 557.498,699.472 557.831,707.472 557.5,715.5 Z"/></g>
<g><path style="opacity:1" fill="#b99fb1" d="M 557.5,715.5 C 557.5,722.5 557.5,729.5 557.5,736.5C 511.819,765.004 466.486,794.004 421.5,823.5C 416.833,819.5 412.5,815.167 408.5,810.5C 457.997,778.584 507.664,746.917 557.5,715.5 Z"/></g>
<g><path style="opacity:1" fill="#8cbcdb" d="M 814.5,719.5 C 805.51,730.488 796.177,741.155 786.5,751.5C 786.44,750.957 786.107,750.624 785.5,750.5C 716.641,794.76 647.641,838.76 578.5,882.5C 578.5,876.833 578.5,871.167 578.5,865.5C 657.988,814.44 737.654,763.94 817.5,714C 816.5,715.667 815.167,717 813.5,718C 814.056,718.383 814.389,718.883 814.5,719.5 Z"/></g>
<g><path style="opacity:1" fill="#b3a4b7" d="M 557.5,736.5 C 557.5,739.833 557.5,743.167 557.5,746.5C 557.5,752.167 557.5,757.833 557.5,763.5C 517.317,788.088 477.65,813.421 438.5,839.5C 432.203,834.871 426.537,829.538 421.5,823.5C 466.486,794.004 511.819,765.004 557.5,736.5 Z"/></g>
<g><path style="opacity:1" fill="#86bdde" d="M 786.5,751.5 C 773.531,766.136 759.865,780.136 745.5,793.5C 745.103,792.475 744.437,792.308 743.5,793C 688.811,828.676 633.811,863.843 578.5,898.5C 578.5,893.167 578.5,887.833 578.5,882.5C 647.641,838.76 716.641,794.76 785.5,750.5C 786.107,750.624 786.44,750.957 786.5,751.5 Z"/></g>
<g><path style="opacity:1" fill="#aea9be" d="M 557.5,763.5 C 557.5,770.833 557.5,778.167 557.5,785.5C 525.388,805.395 493.388,825.562 461.5,846C 457.988,848.061 454.988,850.561 452.5,853.5C 447.5,849.167 442.833,844.5 438.5,839.5C 477.65,813.421 517.317,788.088 557.5,763.5 Z"/></g>
<g><path style="opacity:1" fill="#aaacc2" d="M 557.5,785.5 C 557.5,789.5 557.5,793.5 557.5,797.5C 524.833,818.167 492.167,838.833 459.5,859.5C 456.553,858.219 454.219,856.219 452.5,853.5C 454.988,850.561 457.988,848.061 461.5,846C 493.388,825.562 525.388,805.395 557.5,785.5 Z"/></g>
<g><path style="opacity:1" fill="#7fbfe2" d="M 745.5,793.5 C 730.136,809.864 714.136,825.531 697.5,840.5C 697.103,839.475 696.437,839.308 695.5,840C 656.616,865.057 617.616,889.89 578.5,914.5C 578.5,909.167 578.5,903.833 578.5,898.5C 633.811,863.843 688.811,828.676 743.5,793C 744.437,792.308 745.103,792.475 745.5,793.5 Z"/></g>
<g><path style="opacity:1" fill="#a5afc6" d="M 557.5,797.5 C 557.83,804.532 557.497,811.532 556.5,818.5C 529.301,836.197 501.967,853.697 474.5,871C 473.748,871.671 473.414,872.504 473.5,873.5C 468.5,869.167 463.833,864.5 459.5,859.5C 492.167,838.833 524.833,818.167 557.5,797.5 Z"/></g>
<g><path style="opacity:1" fill="#9aafc8" d="M 557.5,746.5 C 557.833,746.5 558.167,746.5 558.5,746.5C 558.5,810.833 558.5,875.167 558.5,939.5C 558.167,939.5 557.833,939.5 557.5,939.5C 557.5,925.167 557.5,910.833 557.5,896.5C 557.5,884.833 557.5,873.167 557.5,861.5C 557.666,854.825 557.5,848.158 557,841.5C 533.513,856.15 510.346,871.15 487.5,886.5C 482.807,882.139 478.141,877.805 473.5,873.5C 473.414,872.504 473.748,871.671 474.5,871C 501.967,853.697 529.301,836.197 556.5,818.5C 557.497,811.532 557.83,804.532 557.5,797.5C 557.5,793.5 557.5,789.5 557.5,785.5C 557.5,778.167 557.5,770.833 557.5,763.5C 557.5,757.833 557.5,752.167 557.5,746.5 Z"/></g>
<g><path style="opacity:1" fill="#98b7d1" d="M 557.5,861.5 C 537.646,872.72 518.646,885.053 500.5,898.5C 496.141,894.472 491.807,890.472 487.5,886.5C 510.346,871.15 533.513,856.15 557,841.5C 557.5,848.158 557.666,854.825 557.5,861.5 Z"/></g>
<g><path style="opacity:1" fill="#77c1e6" d="M 697.5,840.5 C 667.48,870.012 636.813,898.845 605.5,927C 597.509,933.329 588.509,937.495 578.5,939.5C 578.5,931.167 578.5,922.833 578.5,914.5C 617.616,889.89 656.616,865.057 695.5,840C 696.437,839.308 697.103,839.475 697.5,840.5 Z"/></g>
<g><path style="opacity:1" fill="#90bad7" d="M 557.5,861.5 C 557.5,873.167 557.5,884.833 557.5,896.5C 545.556,903.476 534.223,911.142 523.5,919.5C 515.508,912.841 507.841,905.841 500.5,898.5C 518.646,885.053 537.646,872.72 557.5,861.5 Z"/></g>
<g><path style="opacity:1" fill="#84bedf" d="M 557.5,896.5 C 557.5,910.833 557.5,925.167 557.5,939.5C 554.784,939.322 552.117,938.822 549.5,938C 539.535,933.53 530.868,927.363 523.5,919.5C 534.223,911.142 545.556,903.476 557.5,896.5 Z"/></g>
</svg>
